<svg width="35" height="37" viewBox="0 0 35 37" fill="none" xmlns="http://www.w3.org/2000/svg">
<path d="M17.5 8.47917C18.8537 8.47917 20.152 9.04766 21.1092 10.0596C22.0664 11.0715 22.6042 12.4439 22.6042 13.875C22.6042 15.3061 22.0664 16.6785 21.1092 17.6904C20.152 18.7023 18.8537 19.2708 17.5 19.2708C16.1463 19.2708 14.848 18.7023 13.8908 17.6904C12.9336 16.6785 12.3958 15.3061 12.3958 13.875C12.3958 12.4439 12.9336 11.0715 13.8908 10.0596C14.848 9.04766 16.1463 8.47917 17.5 8.47917ZM7.29167 12.3333C8.10833 12.3333 8.86667 12.5646 9.52292 12.9808C9.30417 15.1854 9.91667 17.3746 11.1708 19.0858C10.4417 20.5658 8.98333 21.5833 7.29167 21.5833C6.13134 21.5833 5.01855 21.0961 4.19807 20.2287C3.3776 19.3614 2.91667 18.185 2.91667 16.9583C2.91667 15.7317 3.3776 14.5553 4.19807 13.688C5.01855 12.8206 6.13134 12.3333 7.29167 12.3333ZM27.7083 12.3333C28.8687 12.3333 29.9815 12.8206 30.8019 13.688C31.6224 14.5553 32.0833 15.7317 32.0833 16.9583C32.0833 18.185 31.6224 19.3614 30.8019 20.2287C29.9815 21.0961 28.8687 21.5833 27.7083 21.5833C26.0167 21.5833 24.5583 20.5658 23.8292 19.0858C25.1007 17.3506 25.6908 15.1641 25.4771 12.9808C26.1333 12.5646 26.8917 12.3333 27.7083 12.3333ZM8.02083 28.1354C8.02083 24.9442 12.2646 22.3542 17.5 22.3542C22.7354 22.3542 26.9792 24.9442 26.9792 28.1354V30.8333H8.02083V28.1354ZM0 30.8333V28.5208C0 26.3779 2.75625 24.5742 6.48958 24.05C5.62917 25.0983 5.10417 26.5475 5.10417 28.1354V30.8333H0ZM35 30.8333H29.8958V28.1354C29.8958 26.5475 29.3708 25.0983 28.5104 24.05C32.2438 24.5742 35 26.3779 35 28.5208V30.8333Z" fill="white"/>
</svg>
